# MagicaVoxel @ Ephtracy

# group
o 

# material
mtllib nineStones.mtl
usemtl palette

# normals
vn -1 0 0
vn 1 0 0
vn 0 0 1
vn 0 0 -1
vn 0 -1 0
vn 0 1 0

# texcoords
vt 0.990234 0.5
vt 0.994141 0.5

# verts
v 0 2 0
v 0 2 -4.1
v 0 2 -5.1
v 0 2 -12.1
v 0 2 -13.1
v 0 2 -17.2
v 0 6 0
v 0 6 -4.1
v 0 6 -5.1
v 0 6 -12.1
v 0 6 -13.1
v 0 6 -17.2
v 5 2 -5.1
v 5 2 -12.1
v 5 6 -5.1
v 5 6 -12.1
v 5.1 2 0
v 5.1 2 -4
v 5.1 2 -13.2
v 5.1 2 -17.2
v 5.1 6 0
v 5.1 6 -4
v 5.1 6 -13.2
v 5.1 6 -17.2
v 13.1 2 0
v 13.1 2 -4.1
v 13.1 2 -13.1
v 13.1 2 -17.2
v 13.1 6 0
v 13.1 6 -4.1
v 13.1 6 -13.1
v 13.1 6 -17.2
v 13.2 2 -5.1
v 13.2 2 -12.1
v 13.2 6 -5.1
v 13.2 6 -12.1
v 4 2 -5.1
v 4 2 -12.1
v 4 6 -5.1
v 4 6 -12.1
v 4.1 2 0
v 4.1 2 -4.1
v 4.1 2 -13.1
v 4.1 2 -17.2
v 4.1 6 0
v 4.1 6 -4.1
v 4.1 6 -13.1
v 4.1 6 -17.2
v 12.1 2 0
v 12.1 2 -4
v 12.1 2 -5.1
v 12.1 2 -12.1
v 12.1 2 -13.2
v 12.1 2 -17.2
v 12.1 6 0
v 12.1 6 -4
v 12.1 6 -5.1
v 12.1 6 -12.1
v 12.1 6 -13.2
v 12.1 6 -17.2
v 17.2 2 0
v 17.2 2 -4.1
v 17.2 2 -5.1
v 17.2 2 -12.1
v 17.2 2 -13.1
v 17.2 2 -17.2
v 17.2 6 0
v 17.2 6 -4.1
v 17.2 6 -5.1
v 17.2 6 -12.1
v 17.2 6 -13.1
v 17.2 6 -17.2
v 0 2 0
v 0 6 0
v 4.1 2 0
v 4.1 6 0
v 5.1 2 0
v 5.1 6 0
v 12.1 2 0
v 12.1 6 0
v 13.1 2 0
v 13.1 6 0
v 17.2 2 0
v 17.2 6 0
v 0 2 -5.1
v 0 6 -5.1
v 4 2 -5.1
v 4 6 -5.1
v 5 2 -5.1
v 5 6 -5.1
v 12.1 2 -5.1
v 12.1 6 -5.1
v 13.2 2 -5.1
v 13.2 6 -5.1
v 17.2 2 -5.1
v 17.2 6 -5.1
v 0 2 -13.1
v 0 6 -13.1
v 4.1 2 -13.1
v 4.1 6 -13.1
v 13.1 2 -13.1
v 13.1 6 -13.1
v 17.2 2 -13.1
v 17.2 6 -13.1
v 5.1 2 -13.2
v 5.1 6 -13.2
v 12.1 2 -13.2
v 12.1 6 -13.2
v 5.1 2 -4
v 5.1 6 -4
v 12.1 2 -4
v 12.1 6 -4
v 0 2 -4.1
v 0 6 -4.1
v 4.1 2 -4.1
v 4.1 6 -4.1
v 13.1 2 -4.1
v 13.1 6 -4.1
v 17.2 2 -4.1
v 17.2 6 -4.1
v 0 2 -12.1
v 0 6 -12.1
v 4 2 -12.1
v 4 6 -12.1
v 5 2 -12.1
v 5 6 -12.1
v 12.1 2 -12.1
v 12.1 6 -12.1
v 13.2 2 -12.1
v 13.2 6 -12.1
v 17.2 2 -12.1
v 17.2 6 -12.1
v 0 2 -17.2
v 0 6 -17.2
v 4.1 2 -17.2
v 4.1 6 -17.2
v 5.1 2 -17.2
v 5.1 6 -17.2
v 12.1 2 -17.2
v 12.1 6 -17.2
v 13.1 2 -17.2
v 13.1 6 -17.2
v 17.2 2 -17.2
v 17.2 6 -17.2
v 0 2 0
v 4.1 2 0
v 5.1 2 0
v 12.1 2 0
v 13.1 2 0
v 17.2 2 0
v 5.1 2 -4
v 12.1 2 -4
v 0 2 -4.1
v 4.1 2 -4.1
v 13.1 2 -4.1
v 17.2 2 -4.1
v 0 2 -5.1
v 4 2 -5.1
v 5 2 -5.1
v 12.1 2 -5.1
v 13.2 2 -5.1
v 17.2 2 -5.1
v 0 2 -12.1
v 4 2 -12.1
v 5 2 -12.1
v 12.1 2 -12.1
v 13.2 2 -12.1
v 17.2 2 -12.1
v 0 2 -13.1
v 4.1 2 -13.1
v 13.1 2 -13.1
v 17.2 2 -13.1
v 5.1 2 -13.2
v 12.1 2 -13.2
v 0 2 -17.2
v 4.1 2 -17.2
v 5.1 2 -17.2
v 12.1 2 -17.2
v 13.1 2 -17.2
v 17.2 2 -17.2
v 0 6 0
v 4.1 6 0
v 5.1 6 0
v 12.1 6 0
v 13.1 6 0
v 17.2 6 0
v 5.1 6 -4
v 12.1 6 -4
v 0 6 -4.1
v 4.1 6 -4.1
v 13.1 6 -4.1
v 17.2 6 -4.1
v 0 6 -5.1
v 4 6 -5.1
v 5 6 -5.1
v 12.1 6 -5.1
v 13.2 6 -5.1
v 17.2 6 -5.1
v 0 6 -12.1
v 4 6 -12.1
v 5 6 -12.1
v 12.1 6 -12.1
v 13.2 6 -12.1
v 17.2 6 -12.1
v 0 6 -13.1
v 4.1 6 -13.1
v 13.1 6 -13.1
v 17.2 6 -13.1
v 5.1 6 -13.2
v 12.1 6 -13.2
v 0 6 -17.2
v 4.1 6 -17.2
v 5.1 6 -17.2
v 12.1 6 -17.2
v 13.1 6 -17.2
v 17.2 6 -17.2

# faces
f 7/2/1 2/2/1 1/2/1
f 8/2/1 2/2/1 7/2/1
f 9/2/1 4/2/1 3/2/1
f 10/2/1 4/2/1 9/2/1
f 11/2/1 6/2/1 5/2/1
f 12/2/1 6/2/1 11/2/1
f 15/1/1 14/1/1 13/1/1
f 16/1/1 14/1/1 15/1/1
f 21/2/1 18/2/1 17/2/1
f 22/2/1 18/2/1 21/2/1
f 23/2/1 20/2/1 19/2/1
f 24/2/1 20/2/1 23/2/1
f 29/2/1 26/2/1 25/2/1
f 30/2/1 26/2/1 29/2/1
f 31/2/1 28/2/1 27/2/1
f 32/2/1 28/2/1 31/2/1
f 35/2/1 34/2/1 33/2/1
f 36/2/1 34/2/1 35/2/1
f 37/2/2 38/2/2 39/2/2
f 39/2/2 38/2/2 40/2/2
f 41/2/2 42/2/2 45/2/2
f 45/2/2 42/2/2 46/2/2
f 43/2/2 44/2/2 47/2/2
f 47/2/2 44/2/2 48/2/2
f 49/2/2 50/2/2 55/2/2
f 55/2/2 50/2/2 56/2/2
f 51/1/2 52/1/2 57/1/2
f 57/1/2 52/1/2 58/1/2
f 53/2/2 54/2/2 59/2/2
f 59/2/2 54/2/2 60/2/2
f 61/2/2 62/2/2 67/2/2
f 67/2/2 62/2/2 68/2/2
f 63/2/2 64/2/2 69/2/2
f 69/2/2 64/2/2 70/2/2
f 65/2/2 66/2/2 71/2/2
f 71/2/2 66/2/2 72/2/2
f 75/2/3 74/2/3 73/2/3
f 76/2/3 74/2/3 75/2/3
f 79/2/3 78/2/3 77/2/3
f 80/2/3 78/2/3 79/2/3
f 83/2/3 82/2/3 81/2/3
f 84/2/3 82/2/3 83/2/3
f 87/2/3 86/2/3 85/2/3
f 88/2/3 86/2/3 87/2/3
f 91/1/3 90/1/3 89/1/3
f 92/1/3 90/1/3 91/1/3
f 95/2/3 94/2/3 93/2/3
f 96/2/3 94/2/3 95/2/3
f 99/2/3 98/2/3 97/2/3
f 100/2/3 98/2/3 99/2/3
f 103/2/3 102/2/3 101/2/3
f 104/2/3 102/2/3 103/2/3
f 107/2/3 106/2/3 105/2/3
f 108/2/3 106/2/3 107/2/3
f 109/2/4 110/2/4 111/2/4
f 111/2/4 110/2/4 112/2/4
f 113/2/4 114/2/4 115/2/4
f 115/2/4 114/2/4 116/2/4
f 117/2/4 118/2/4 119/2/4
f 119/2/4 118/2/4 120/2/4
f 121/2/4 122/2/4 123/2/4
f 123/2/4 122/2/4 124/2/4
f 125/1/4 126/1/4 127/1/4
f 127/1/4 126/1/4 128/1/4
f 129/2/4 130/2/4 131/2/4
f 131/2/4 130/2/4 132/2/4
f 133/2/4 134/2/4 135/2/4
f 135/2/4 134/2/4 136/2/4
f 137/2/4 138/2/4 139/2/4
f 139/2/4 138/2/4 140/2/4
f 141/2/4 142/2/4 143/2/4
f 143/2/4 142/2/4 144/2/4
f 151/2/5 148/2/5 147/2/5
f 152/2/5 148/2/5 151/2/5
f 153/2/5 146/2/5 145/2/5
f 154/2/5 146/2/5 153/2/5
f 155/2/5 150/2/5 149/2/5
f 156/2/5 150/2/5 155/2/5
f 163/2/5 158/2/5 157/2/5
f 164/2/5 158/2/5 163/2/5
f 165/1/5 160/1/5 159/1/5
f 166/1/5 160/1/5 165/1/5
f 167/2/5 162/2/5 161/2/5
f 168/2/5 162/2/5 167/2/5
f 175/2/5 170/2/5 169/2/5
f 176/2/5 170/2/5 175/2/5
f 177/2/5 174/2/5 173/2/5
f 178/2/5 174/2/5 177/2/5
f 179/2/5 172/2/5 171/2/5
f 180/2/5 172/2/5 179/2/5
f 183/2/6 184/2/6 187/2/6
f 187/2/6 184/2/6 188/2/6
f 181/2/6 182/2/6 189/2/6
f 189/2/6 182/2/6 190/2/6
f 185/2/6 186/2/6 191/2/6
f 191/2/6 186/2/6 192/2/6
f 193/2/6 194/2/6 199/2/6
f 199/2/6 194/2/6 200/2/6
f 195/1/6 196/1/6 201/1/6
f 201/1/6 196/1/6 202/1/6
f 197/2/6 198/2/6 203/2/6
f 203/2/6 198/2/6 204/2/6
f 205/2/6 206/2/6 211/2/6
f 211/2/6 206/2/6 212/2/6
f 209/2/6 210/2/6 213/2/6
f 213/2/6 210/2/6 214/2/6
f 207/2/6 208/2/6 215/2/6
f 215/2/6 208/2/6 216/2/6
