# MagicaVoxel @ Ephtracy

# group
o 

# material
mtllib labyrinth.mtl
usemtl palette

# normals
vn -1 0 0
vn 1 0 0
vn 0 0 1
vn 0 0 -1
vn 0 -1 0
vn 0 1 0

# texcoords
vt 0.748047 0.5
vt 0.810547 0.5
vt 0.853516 0.5
vt 0.876953 0.5

# verts
v 0 2 0
v 0 2 -16.4
v 0 4.4 0
v 0 4.4 -16.4
v 2 2.4 -2
v 2 2.4 -8.4
v 2 2.4 -14
v 2 2.4 -14.4
v 2 4.4 -2
v 2 4.4 -8.4
v 2 4.4 -14
v 2 4.4 -14.4
v 4 2.4 -6
v 4 2.4 -6.4
v 4 2.4 -12
v 4 2.4 -14
v 4 4.4 -6
v 4 4.4 -6.4
v 4 4.4 -12
v 4 4.4 -14
v 6 2.4 -0.4
v 6 2.4 -6
v 6 2.4 -8.4
v 6 2.4 -12
v 6 2.4 -14
v 6 2.4 -16
v 6 4.4 -0.4
v 6 4.4 -6
v 6 4.4 -8.4
v 6 4.4 -12
v 6 4.4 -14
v 6 4.4 -16
v 8 2.4 0
v 8 2.4 -0.4
v 8 2.4 -4
v 8 2.4 -6.4
v 8 2.4 -8
v 8 2.4 -10.4
v 8 2.4 -12.4
v 8 2.4 -16
v 8 2.4 -16.4
v 8 4.4 0
v 8 4.4 -0.4
v 8 4.4 -4
v 8 4.4 -6.4
v 8 4.4 -8
v 8 4.4 -10.4
v 8 4.4 -12.4
v 8 4.4 -16
v 8 4.4 -16.4
v 10 2.4 -2.4
v 10 2.4 -4.4
v 10 2.4 -10
v 10 2.4 -12
v 10 2.4 -14
v 10 2.4 -14.4
v 10 4.4 -2.4
v 10 4.4 -4.4
v 10 4.4 -10
v 10 4.4 -12
v 10 4.4 -14
v 10 4.4 -14.4
v 12 2.4 -0.4
v 12 2.4 -2.4
v 12 4.4 -0.4
v 12 4.4 -2.4
v 14 2.4 -2
v 14 2.4 -4
v 14 2.4 -8.4
v 14 2.4 -14
v 14 4.4 -2
v 14 4.4 -4
v 14 4.4 -8.4
v 14 4.4 -14
v 15.8 2.4 -0.4
v 15.8 2.4 -6
v 15.8 4.4 -0.4
v 15.8 4.4 -6
v 16 2.4 -6.4
v 16 2.4 -16
v 16 4.4 -6.4
v 16 4.4 -16
v 0.4 2.4 -0.4
v 0.4 2.4 -10
v 0.4 2.4 -12.4
v 0.4 2.4 -16
v 0.4 4.4 -0.4
v 0.4 4.4 -10
v 0.4 4.4 -12.4
v 0.4 4.4 -16
v 2.4 2.4 -4.4
v 2.4 2.4 -8
v 2.4 2.4 -10.4
v 2.4 2.4 -12.4
v 2.4 4.4 -4.4
v 2.4 4.4 -8
v 2.4 4.4 -10.4
v 2.4 4.4 -12.4
v 4.4 2.4 -2
v 4.4 2.4 -4.4
v 4.4 2.4 -10
v 4.4 2.4 -10.4
v 4.4 2.4 -12.4
v 4.4 2.4 -14.4
v 4.4 4.4 -2
v 4.4 4.4 -4.4
v 4.4 4.4 -10
v 4.4 4.4 -10.4
v 4.4 4.4 -12.4
v 4.4 4.4 -14.4
v 6.4 2.4 0
v 6.4 2.4 -0.4
v 6.4 2.4 -2
v 6.4 2.4 -2.4
v 6.4 2.4 -6.4
v 6.4 2.4 -8
v 6.4 2.4 -12
v 6.4 2.4 -14
v 6.4 2.4 -16
v 6.4 2.4 -16.4
v 6.4 4.4 0
v 6.4 4.4 -0.4
v 6.4 4.4 -2
v 6.4 4.4 -2.4
v 6.4 4.4 -6.4
v 6.4 4.4 -8
v 6.4 4.4 -12
v 6.4 4.4 -14
v 6.4 4.4 -16
v 6.4 4.4 -16.4
v 8.4 2.4 -4
v 8.4 2.4 -6
v 8.4 2.4 -8.4
v 8.4 2.4 -10.4
v 8.4 2.4 -12.4
v 8.4 2.4 -16
v 8.4 4.4 -4
v 8.4 4.4 -6
v 8.4 4.4 -8.4
v 8.4 4.4 -10.4
v 8.4 4.4 -12.4
v 8.4 4.4 -16
v 10.4 2.4 -2
v 10.4 2.4 -4
v 10.4 4.4 -2
v 10.4 4.4 -4
v 12.4 2.4 -0.4
v 12.4 2.4 -2.4
v 12.4 2.4 -10
v 12.4 2.4 -12.4
v 12.4 4.4 -0.4
v 12.4 4.4 -2.4
v 12.4 4.4 -10
v 12.4 4.4 -12.4
v 14.4 2.4 -2
v 14.4 2.4 -4.4
v 14.4 2.4 -8
v 14.4 2.4 -14.4
v 14.4 4.4 -2
v 14.4 4.4 -4.4
v 14.4 4.4 -8
v 14.4 4.4 -14.4
v 16.4 2 0
v 16.4 2 -16.4
v 16.4 4.4 0
v 16.4 4.4 -16.4
v 0 2 0
v 0 4.4 0
v 6.4 2.4 0
v 6.4 4.4 0
v 8 2.4 0
v 8 4.4 0
v 16.4 2 0
v 16.4 4.4 0
v 2 2.4 -2
v 2 4.4 -2
v 4.4 2.4 -2
v 4.4 4.4 -2
v 6.4 2.4 -2
v 6.4 4.4 -2
v 10.4 2.4 -2
v 10.4 4.4 -2
v 14 2.4 -2
v 14 4.4 -2
v 14.4 2.4 -2
v 14.4 4.4 -2
v 8 2.4 -4
v 8 4.4 -4
v 8.4 2.4 -4
v 8.4 4.4 -4
v 10.4 2.4 -4
v 10.4 4.4 -4
v 14 2.4 -4
v 14 4.4 -4
v 4 2.4 -6
v 4 4.4 -6
v 6 2.4 -6
v 6 4.4 -6
v 8.4 2.4 -6
v 8.4 4.4 -6
v 15.8 2.4 -6
v 15.8 4.4 -6
v 2.4 2.4 -8
v 2.4 4.4 -8
v 6.4 2.4 -8
v 6.4 4.4 -8
v 8 2.4 -8
v 8 4.4 -8
v 14.4 2.4 -8
v 14.4 4.4 -8
v 0.4 2.4 -10
v 0.4 4.4 -10
v 4.4 2.4 -10
v 4.4 4.4 -10
v 10 2.4 -10
v 10 4.4 -10
v 12.4 2.4 -10
v 12.4 4.4 -10
v 4 2.4 -12
v 4 4.4 -12
v 6 2.4 -12
v 6 4.4 -12
v 6.4 2.4 -12
v 6.4 4.4 -12
v 10 2.4 -12
v 10 4.4 -12
v 2 2.4 -14
v 2 4.4 -14
v 4 2.4 -14
v 4 4.4 -14
v 6 2.4 -14
v 6 4.4 -14
v 6.4 2.4 -14
v 6.4 4.4 -14
v 10 2.4 -14
v 10 4.4 -14
v 14 2.4 -14
v 14 4.4 -14
v 0.4 2.4 -16
v 0.4 4.4 -16
v 6 2.4 -16
v 6 4.4 -16
v 8.4 2.4 -16
v 8.4 4.4 -16
v 16 2.4 -16
v 16 4.4 -16
v 0.4 2.4 -0.4
v 0.4 4.4 -0.4
v 6 2.4 -0.4
v 6 4.4 -0.4
v 8 2.4 -0.4
v 8 4.4 -0.4
v 12 2.4 -0.4
v 12 4.4 -0.4
v 12.4 2.4 -0.4
v 12.4 4.4 -0.4
v 15.8 2.4 -0.4
v 15.8 4.4 -0.4
v 6.4 2.4 -2.4
v 6.4 4.4 -2.4
v 10 2.4 -2.4
v 10 4.4 -2.4
v 12 2.4 -2.4
v 12 4.4 -2.4
v 12.4 2.4 -2.4
v 12.4 4.4 -2.4
v 2.4 2.4 -4.4
v 2.4 4.4 -4.4
v 4.4 2.4 -4.4
v 4.4 4.4 -4.4
v 10 2.4 -4.4
v 10 4.4 -4.4
v 14.4 2.4 -4.4
v 14.4 4.4 -4.4
v 4 2.4 -6.4
v 4 4.4 -6.4
v 6.4 2.4 -6.4
v 6.4 4.4 -6.4
v 8 2.4 -6.4
v 8 4.4 -6.4
v 16 2.4 -6.4
v 16 4.4 -6.4
v 2 2.4 -8.4
v 2 4.4 -8.4
v 6 2.4 -8.4
v 6 4.4 -8.4
v 8.4 2.4 -8.4
v 8.4 4.4 -8.4
v 14 2.4 -8.4
v 14 4.4 -8.4
v 2.4 2.4 -10.4
v 2.4 4.4 -10.4
v 4.4 2.4 -10.4
v 4.4 4.4 -10.4
v 8 2.4 -10.4
v 8 4.4 -10.4
v 8.4 2.4 -10.4
v 8.4 4.4 -10.4
v 0.4 2.4 -12.4
v 0.4 4.4 -12.4
v 2.4 2.4 -12.4
v 2.4 4.4 -12.4
v 4.4 2.4 -12.4
v 4.4 4.4 -12.4
v 8 2.4 -12.4
v 8 4.4 -12.4
v 8.4 2.4 -12.4
v 8.4 4.4 -12.4
v 12.4 2.4 -12.4
v 12.4 4.4 -12.4
v 2 2.4 -14.4
v 2 4.4 -14.4
v 4.4 2.4 -14.4
v 4.4 4.4 -14.4
v 10 2.4 -14.4
v 10 4.4 -14.4
v 14.4 2.4 -14.4
v 14.4 4.4 -14.4
v 0 2 -16.4
v 0 4.4 -16.4
v 6.4 2.4 -16.4
v 6.4 4.4 -16.4
v 8 2.4 -16.4
v 8 4.4 -16.4
v 16.4 2 -16.4
v 16.4 4.4 -16.4
v 0 2 0
v 16.4 2 0
v 0.4 2 -0.4
v 16 2 -0.4
v 0.4 2 -16
v 16 2 -16
v 0 2 -16.4
v 16.4 2 -16.4
v 6.4 2.4 0
v 8 2.4 0
v 0.4 2.4 -0.4
v 6 2.4 -0.4
v 6.4 2.4 -0.4
v 8 2.4 -0.4
v 12 2.4 -0.4
v 12.4 2.4 -0.4
v 15.8 2.4 -0.4
v 2 2.4 -2
v 4.4 2.4 -2
v 6.4 2.4 -2
v 10.4 2.4 -2
v 14 2.4 -2
v 14.4 2.4 -2
v 6.4 2.4 -2.4
v 10 2.4 -2.4
v 12 2.4 -2.4
v 12.4 2.4 -2.4
v 8 2.4 -4
v 8.4 2.4 -4
v 10.4 2.4 -4
v 14 2.4 -4
v 2.4 2.4 -4.4
v 4.4 2.4 -4.4
v 10 2.4 -4.4
v 14.4 2.4 -4.4
v 4 2.4 -6
v 6 2.4 -6
v 8.4 2.4 -6
v 15.8 2.4 -6
v 4 2.4 -6.4
v 6.4 2.4 -6.4
v 8 2.4 -6.4
v 16 2.4 -6.4
v 2.4 2.4 -8
v 6.4 2.4 -8
v 8 2.4 -8
v 14.4 2.4 -8
v 2 2.4 -8.4
v 6 2.4 -8.4
v 8.4 2.4 -8.4
v 14 2.4 -8.4
v 0.4 2.4 -10
v 4.4 2.4 -10
v 10 2.4 -10
v 12.4 2.4 -10
v 2.4 2.4 -10.4
v 4.4 2.4 -10.4
v 8 2.4 -10.4
v 8.4 2.4 -10.4
v 4 2.4 -12
v 6 2.4 -12
v 6.4 2.4 -12
v 10 2.4 -12
v 0.4 2.4 -12.4
v 2.4 2.4 -12.4
v 4.4 2.4 -12.4
v 8 2.4 -12.4
v 8.4 2.4 -12.4
v 12.4 2.4 -12.4
v 2 2.4 -14
v 4 2.4 -14
v 6 2.4 -14
v 6.4 2.4 -14
v 10 2.4 -14
v 14 2.4 -14
v 2 2.4 -14.4
v 4.4 2.4 -14.4
v 10 2.4 -14.4
v 14.4 2.4 -14.4
v 0.4 2.4 -16
v 6 2.4 -16
v 6.4 2.4 -16
v 8 2.4 -16
v 8.4 2.4 -16
v 16 2.4 -16
v 6.4 2.4 -16.4
v 8 2.4 -16.4
v 0 4.4 0
v 6.4 4.4 0
v 8 4.4 0
v 16.4 4.4 0
v 0.4 4.4 -0.4
v 6 4.4 -0.4
v 6.4 4.4 -0.4
v 8 4.4 -0.4
v 12 4.4 -0.4
v 12.4 4.4 -0.4
v 15.8 4.4 -0.4
v 16 4.4 -0.4
v 2 4.4 -2
v 4.4 4.4 -2
v 6.4 4.4 -2
v 10.4 4.4 -2
v 14 4.4 -2
v 14.4 4.4 -2
v 2.4 4.4 -2.4
v 4 4.4 -2.4
v 6.4 4.4 -2.4
v 10 4.4 -2.4
v 12 4.4 -2.4
v 12.4 4.4 -2.4
v 2.4 4.4 -4
v 4 4.4 -4
v 8 4.4 -4
v 8.4 4.4 -4
v 10.4 4.4 -4
v 14 4.4 -4
v 2.4 4.4 -4.4
v 4.4 4.4 -4.4
v 10 4.4 -4.4
v 14.4 4.4 -4.4
v 4 4.4 -6
v 6 4.4 -6
v 8.4 4.4 -6
v 15.8 4.4 -6
v 4 4.4 -6.4
v 6.4 4.4 -6.4
v 8 4.4 -6.4
v 16 4.4 -6.4
v 2.4 4.4 -8
v 6.4 4.4 -8
v 8 4.4 -8
v 14.4 4.4 -8
v 2 4.4 -8.4
v 6 4.4 -8.4
v 8.4 4.4 -8.4
v 14 4.4 -8.4
v 0.4 4.4 -10
v 4.4 4.4 -10
v 10 4.4 -10
v 12.4 4.4 -10
v 0.4 4.4 -10.4
v 2 4.4 -10.4
v 2.4 4.4 -10.4
v 4.4 4.4 -10.4
v 8 4.4 -10.4
v 8.4 4.4 -10.4
v 10.4 4.4 -10.4
v 12 4.4 -10.4
v 0.4 4.4 -12
v 2 4.4 -12
v 4 4.4 -12
v 6 4.4 -12
v 6.4 4.4 -12
v 10 4.4 -12
v 10.4 4.4 -12
v 12 4.4 -12
v 0.4 4.4 -12.4
v 2.4 4.4 -12.4
v 4.4 4.4 -12.4
v 8 4.4 -12.4
v 8.4 4.4 -12.4
v 12.4 4.4 -12.4
v 2 4.4 -14
v 4 4.4 -14
v 6 4.4 -14
v 6.4 4.4 -14
v 10 4.4 -14
v 14 4.4 -14
v 2 4.4 -14.4
v 4.4 4.4 -14.4
v 10 4.4 -14.4
v 14.4 4.4 -14.4
v 0.4 4.4 -16
v 6 4.4 -16
v 6.4 4.4 -16
v 8 4.4 -16
v 8.4 4.4 -16
v 16 4.4 -16
v 0 4.4 -16.4
v 6.4 4.4 -16.4
v 8 4.4 -16.4
v 16.4 4.4 -16.4

# faces
f 3/3/1 2/3/1 1/3/1
f 4/3/1 2/3/1 3/3/1
f 9/1/1 6/1/1 5/1/1
f 10/1/1 6/1/1 9/1/1
f 11/1/1 8/1/1 7/1/1
f 12/1/1 8/1/1 11/1/1
f 17/1/1 14/1/1 13/1/1
f 18/1/1 14/1/1 17/1/1
f 19/1/1 16/1/1 15/1/1
f 20/1/1 16/1/1 19/1/1
f 27/1/1 22/1/1 21/1/1
f 28/1/1 22/1/1 27/1/1
f 29/1/1 24/1/1 23/1/1
f 30/1/1 24/1/1 29/1/1
f 31/1/1 26/1/1 25/1/1
f 32/1/1 26/1/1 31/1/1
f 42/3/1 34/3/1 33/3/1
f 43/3/1 34/3/1 42/3/1
f 44/1/1 36/1/1 35/1/1
f 45/1/1 36/1/1 44/1/1
f 46/1/1 38/1/1 37/1/1
f 47/1/1 38/1/1 46/1/1
f 48/1/1 40/1/1 39/1/1
f 49/3/1 41/3/1 40/3/1
f 49/1/1 40/1/1 48/1/1
f 50/3/1 41/3/1 49/3/1
f 57/1/1 52/1/1 51/1/1
f 58/1/1 52/1/1 57/1/1
f 59/1/1 54/1/1 53/1/1
f 60/1/1 54/1/1 59/1/1
f 61/1/1 56/1/1 55/1/1
f 62/1/1 56/1/1 61/1/1
f 65/1/1 64/1/1 63/1/1
f 66/1/1 64/1/1 65/1/1
f 71/1/1 68/1/1 67/1/1
f 72/1/1 68/1/1 71/1/1
f 73/1/1 70/1/1 69/1/1
f 74/1/1 70/1/1 73/1/1
f 77/1/1 76/1/1 75/1/1
f 78/1/1 76/1/1 77/1/1
f 81/3/1 80/3/1 79/3/1
f 82/3/1 80/3/1 81/3/1
f 83/3/2 84/3/2 87/3/2
f 87/3/2 84/3/2 88/3/2
f 85/3/2 86/3/2 89/3/2
f 89/3/2 86/3/2 90/3/2
f 91/1/2 92/1/2 95/1/2
f 95/1/2 92/1/2 96/1/2
f 93/1/2 94/1/2 97/1/2
f 97/1/2 94/1/2 98/1/2
f 99/1/2 100/1/2 105/1/2
f 105/1/2 100/1/2 106/1/2
f 101/1/2 102/1/2 107/1/2
f 107/1/2 102/1/2 108/1/2
f 103/1/2 104/1/2 109/1/2
f 109/1/2 104/1/2 110/1/2
f 111/3/2 112/3/2 121/3/2
f 112/1/2 113/1/2 122/1/2
f 121/3/2 112/3/2 122/3/2
f 122/1/2 113/1/2 123/1/2
f 114/1/2 115/1/2 124/1/2
f 124/1/2 115/1/2 125/1/2
f 116/1/2 117/1/2 126/1/2
f 126/1/2 117/1/2 127/1/2
f 118/1/2 119/1/2 128/1/2
f 119/3/2 120/3/2 129/3/2
f 128/1/2 119/1/2 129/1/2
f 129/3/2 120/3/2 130/3/2
f 131/1/2 132/1/2 137/1/2
f 137/1/2 132/1/2 138/1/2
f 133/1/2 134/1/2 139/1/2
f 139/1/2 134/1/2 140/1/2
f 135/1/2 136/1/2 141/1/2
f 141/1/2 136/1/2 142/1/2
f 143/1/2 144/1/2 145/1/2
f 145/1/2 144/1/2 146/1/2
f 147/1/2 148/1/2 151/1/2
f 151/1/2 148/1/2 152/1/2
f 149/1/2 150/1/2 153/1/2
f 153/1/2 150/1/2 154/1/2
f 155/1/2 156/1/2 159/1/2
f 159/1/2 156/1/2 160/1/2
f 157/1/2 158/1/2 161/1/2
f 161/1/2 158/1/2 162/1/2
f 163/3/2 164/3/2 165/3/2
f 165/3/2 164/3/2 166/3/2
f 169/3/3 168/3/3 167/3/3
f 170/3/3 168/3/3 169/3/3
f 171/3/3 169/3/3 167/3/3
f 173/3/3 171/3/3 167/3/3
f 173/3/3 172/3/3 171/3/3
f 174/3/3 172/3/3 173/3/3
f 177/1/3 176/1/3 175/1/3
f 178/1/3 176/1/3 177/1/3
f 181/1/3 180/1/3 179/1/3
f 182/1/3 180/1/3 181/1/3
f 185/1/3 184/1/3 183/1/3
f 186/1/3 184/1/3 185/1/3
f 189/1/3 188/1/3 187/1/3
f 190/1/3 188/1/3 189/1/3
f 193/1/3 192/1/3 191/1/3
f 194/1/3 192/1/3 193/1/3
f 197/1/3 196/1/3 195/1/3
f 198/1/3 196/1/3 197/1/3
f 201/1/3 200/1/3 199/1/3
f 202/1/3 200/1/3 201/1/3
f 205/1/3 204/1/3 203/1/3
f 206/1/3 204/1/3 205/1/3
f 209/1/3 208/1/3 207/1/3
f 210/1/3 208/1/3 209/1/3
f 213/1/3 212/1/3 211/1/3
f 214/1/3 212/1/3 213/1/3
f 217/1/3 216/1/3 215/1/3
f 218/1/3 216/1/3 217/1/3
f 221/1/3 220/1/3 219/1/3
f 222/1/3 220/1/3 221/1/3
f 225/1/3 224/1/3 223/1/3
f 226/1/3 224/1/3 225/1/3
f 229/1/3 228/1/3 227/1/3
f 230/1/3 228/1/3 229/1/3
f 233/1/3 232/1/3 231/1/3
f 234/1/3 232/1/3 233/1/3
f 237/1/3 236/1/3 235/1/3
f 238/1/3 236/1/3 237/1/3
f 241/3/3 240/3/3 239/3/3
f 242/3/3 240/3/3 241/3/3
f 245/3/3 244/3/3 243/3/3
f 246/3/3 244/3/3 245/3/3
f 247/3/4 248/3/4 249/3/4
f 249/3/4 248/3/4 250/3/4
f 251/3/4 252/3/4 253/3/4
f 253/3/4 252/3/4 254/3/4
f 255/3/4 256/3/4 257/3/4
f 257/3/4 256/3/4 258/3/4
f 259/1/4 260/1/4 261/1/4
f 261/1/4 260/1/4 262/1/4
f 263/1/4 264/1/4 265/1/4
f 265/1/4 264/1/4 266/1/4
f 267/1/4 268/1/4 269/1/4
f 269/1/4 268/1/4 270/1/4
f 271/1/4 272/1/4 273/1/4
f 273/1/4 272/1/4 274/1/4
f 275/1/4 276/1/4 277/1/4
f 277/1/4 276/1/4 278/1/4
f 279/1/4 280/1/4 281/1/4
f 281/1/4 280/1/4 282/1/4
f 283/1/4 284/1/4 285/1/4
f 285/1/4 284/1/4 286/1/4
f 287/1/4 288/1/4 289/1/4
f 289/1/4 288/1/4 290/1/4
f 291/1/4 292/1/4 293/1/4
f 293/1/4 292/1/4 294/1/4
f 295/1/4 296/1/4 297/1/4
f 297/1/4 296/1/4 298/1/4
f 299/1/4 300/1/4 301/1/4
f 301/1/4 300/1/4 302/1/4
f 303/1/4 304/1/4 305/1/4
f 305/1/4 304/1/4 306/1/4
f 307/1/4 308/1/4 309/1/4
f 309/1/4 308/1/4 310/1/4
f 311/1/4 312/1/4 313/1/4
f 313/1/4 312/1/4 314/1/4
f 315/1/4 316/1/4 317/1/4
f 317/1/4 316/1/4 318/1/4
f 319/3/4 320/3/4 321/3/4
f 321/3/4 320/3/4 322/3/4
f 319/3/4 321/3/4 323/3/4
f 319/3/4 323/3/4 325/3/4
f 323/3/4 324/3/4 325/3/4
f 325/3/4 324/3/4 326/3/4
f 329/3/5 328/3/5 327/3/5
f 330/3/5 328/3/5 329/3/5
f 331/3/5 329/3/5 327/3/5
f 331/4/5 330/4/5 329/4/5
f 332/3/5 328/3/5 330/3/5
f 332/4/5 330/4/5 331/4/5
f 333/3/5 331/3/5 327/3/5
f 333/3/5 332/3/5 331/3/5
f 334/3/5 328/3/5 332/3/5
f 334/3/5 332/3/5 333/3/5
f 335/3/6 336/3/6 339/3/6
f 339/3/6 336/3/6 340/3/6
f 337/4/6 338/4/6 344/4/6
f 344/4/6 338/4/6 345/4/6
f 339/4/6 340/4/6 346/4/6
f 340/4/6 341/4/6 346/4/6
f 346/4/6 341/4/6 347/4/6
f 342/4/6 343/4/6 348/4/6
f 348/4/6 343/4/6 349/4/6
f 347/4/6 341/4/6 352/4/6
f 342/4/6 348/4/6 353/4/6
f 350/4/6 351/4/6 354/4/6
f 354/4/6 351/4/6 355/4/6
f 352/4/6 353/4/6 356/4/6
f 347/4/6 352/4/6 356/4/6
f 353/4/6 348/4/6 357/4/6
f 356/4/6 353/4/6 357/4/6
f 345/4/6 338/4/6 359/4/6
f 355/4/6 351/4/6 360/4/6
f 349/4/6 343/4/6 361/4/6
f 358/4/6 359/4/6 362/4/6
f 359/4/6 338/4/6 363/4/6
f 362/4/6 359/4/6 363/4/6
f 360/4/6 361/4/6 364/4/6
f 355/4/6 360/4/6 364/4/6
f 361/4/6 343/4/6 365/4/6
f 364/4/6 361/4/6 365/4/6
f 358/4/6 362/4/6 366/4/6
f 350/4/6 354/4/6 367/4/6
f 367/4/6 354/4/6 368/4/6
f 367/4/6 368/4/6 370/4/6
f 368/4/6 369/4/6 370/4/6
f 366/4/6 367/4/6 370/4/6
f 358/4/6 366/4/6 370/4/6
f 370/4/6 369/4/6 371/4/6
f 371/4/6 369/4/6 372/4/6
f 372/4/6 369/4/6 373/4/6
f 337/4/6 344/4/6 374/4/6
f 337/4/6 374/4/6 378/4/6
f 374/4/6 375/4/6 378/4/6
f 378/4/6 375/4/6 379/4/6
f 376/4/6 377/4/6 380/4/6
f 380/4/6 377/4/6 381/4/6
f 379/4/6 375/4/6 383/4/6
f 371/4/6 372/4/6 384/4/6
f 376/4/6 380/4/6 385/4/6
f 382/4/6 383/4/6 386/4/6
f 383/4/6 375/4/6 387/4/6
f 386/4/6 383/4/6 387/4/6
f 384/4/6 385/4/6 388/4/6
f 371/4/6 384/4/6 388/4/6
f 385/4/6 380/4/6 389/4/6
f 388/4/6 385/4/6 389/4/6
f 382/4/6 386/4/6 391/4/6
f 381/4/6 377/4/6 395/4/6
f 390/4/6 391/4/6 396/4/6
f 391/4/6 386/4/6 397/4/6
f 396/4/6 391/4/6 397/4/6
f 392/4/6 393/4/6 398/4/6
f 398/4/6 393/4/6 399/4/6
f 394/4/6 395/4/6 400/4/6
f 395/4/6 377/4/6 401/4/6
f 400/4/6 395/4/6 401/4/6
f 390/4/6 396/4/6 402/4/6
f 392/4/6 398/4/6 403/4/6
f 394/4/6 400/4/6 404/4/6
f 373/4/6 369/4/6 405/4/6
f 390/4/6 402/4/6 406/4/6
f 402/4/6 403/4/6 406/4/6
f 403/4/6 398/4/6 407/4/6
f 406/4/6 403/4/6 407/4/6
f 399/4/6 393/4/6 408/4/6
f 408/4/6 393/4/6 409/4/6
f 394/4/6 404/4/6 410/4/6
f 404/4/6 405/4/6 410/4/6
f 405/4/6 369/4/6 411/4/6
f 410/4/6 405/4/6 411/4/6
f 408/3/6 409/3/6 412/3/6
f 412/3/6 409/3/6 413/3/6
f 414/3/6 415/3/6 418/3/6
f 418/3/6 415/3/6 419/3/6
f 419/3/6 415/3/6 420/3/6
f 416/3/6 417/3/6 421/3/6
f 421/3/6 417/3/6 422/3/6
f 422/3/6 417/3/6 423/3/6
f 423/3/6 417/3/6 424/3/6
f 424/3/6 417/3/6 425/3/6
f 419/1/6 420/1/6 428/1/6
f 426/1/6 427/1/6 432/1/6
f 432/1/6 427/1/6 433/1/6
f 419/1/6 428/1/6 434/1/6
f 428/1/6 429/1/6 434/1/6
f 434/1/6 429/1/6 435/1/6
f 422/1/6 423/1/6 436/1/6
f 436/1/6 423/1/6 437/1/6
f 432/2/6 433/2/6 438/2/6
f 426/1/6 432/1/6 438/1/6
f 433/1/6 427/1/6 439/1/6
f 438/2/6 433/2/6 439/2/6
f 435/1/6 429/1/6 442/1/6
f 430/1/6 431/1/6 443/1/6
f 426/1/6 438/1/6 444/1/6
f 438/1/6 439/1/6 444/1/6
f 439/1/6 427/1/6 445/1/6
f 444/1/6 439/1/6 445/1/6
f 435/1/6 442/1/6 446/1/6
f 442/1/6 443/1/6 446/1/6
f 443/1/6 431/1/6 447/1/6
f 446/1/6 443/1/6 447/1/6
f 419/1/6 434/1/6 449/1/6
f 440/1/6 441/1/6 450/1/6
f 424/1/6 425/1/6 451/1/6
f 448/1/6 449/1/6 452/1/6
f 449/1/6 434/1/6 453/1/6
f 452/1/6 449/1/6 453/1/6
f 440/1/6 450/1/6 454/1/6
f 450/1/6 451/1/6 454/1/6
f 425/3/6 417/3/6 455/3/6
f 454/1/6 451/1/6 455/1/6
f 451/1/6 425/1/6 455/1/6
f 426/1/6 444/1/6 456/1/6
f 426/1/6 456/1/6 460/1/6
f 456/1/6 457/1/6 460/1/6
f 460/1/6 457/1/6 461/1/6
f 458/1/6 459/1/6 462/1/6
f 462/1/6 459/1/6 463/1/6
f 414/3/6 418/3/6 464/3/6
f 414/3/6 464/3/6 468/3/6
f 464/1/6 465/1/6 468/1/6
f 468/1/6 465/1/6 469/1/6
f 469/1/6 465/1/6 470/1/6
f 470/1/6 465/1/6 471/1/6
f 458/1/6 462/1/6 472/1/6
f 472/1/6 462/1/6 473/1/6
f 466/1/6 467/1/6 474/1/6
f 474/1/6 467/1/6 475/1/6
f 414/3/6 468/3/6 476/3/6
f 468/2/6 469/2/6 476/2/6
f 469/1/6 470/1/6 477/1/6
f 476/2/6 469/2/6 477/2/6
f 461/1/6 457/1/6 479/1/6
f 479/1/6 457/1/6 480/1/6
f 466/1/6 474/1/6 481/1/6
f 474/2/6 475/2/6 482/2/6
f 481/1/6 474/1/6 482/1/6
f 475/1/6 467/1/6 483/1/6
f 482/2/6 475/2/6 483/2/6
f 414/3/6 476/3/6 484/3/6
f 476/1/6 477/1/6 484/1/6
f 477/1/6 470/1/6 485/1/6
f 484/1/6 477/1/6 485/1/6
f 481/1/6 482/1/6 486/1/6
f 480/1/6 481/1/6 486/1/6
f 479/1/6 480/1/6 486/1/6
f 478/1/6 479/1/6 486/1/6
f 482/1/6 483/1/6 486/1/6
f 486/1/6 483/1/6 487/1/6
f 487/1/6 483/1/6 488/1/6
f 483/1/6 467/1/6 489/1/6
f 488/1/6 483/1/6 489/1/6
f 478/1/6 486/1/6 491/1/6
f 463/1/6 459/1/6 495/1/6
f 490/1/6 491/1/6 496/1/6
f 491/1/6 486/1/6 497/1/6
f 496/1/6 491/1/6 497/1/6
f 494/1/6 495/1/6 498/1/6
f 495/1/6 459/1/6 499/1/6
f 498/1/6 495/1/6 499/1/6
f 414/3/6 484/3/6 500/3/6
f 492/1/6 493/1/6 501/1/6
f 501/1/6 493/1/6 502/1/6
f 487/1/6 488/1/6 503/1/6
f 503/1/6 488/1/6 504/1/6
f 455/3/6 417/3/6 505/3/6
f 414/3/6 500/3/6 506/3/6
f 501/3/6 502/3/6 506/3/6
f 500/3/6 501/3/6 506/3/6
f 506/3/6 502/3/6 507/3/6
f 503/3/6 504/3/6 508/3/6
f 504/3/6 505/3/6 508/3/6
f 505/3/6 417/3/6 509/3/6
f 508/3/6 505/3/6 509/3/6
