# MagicaVoxel @ Ephtracy

# group
o 

# material
mtllib tablo.mtl
usemtl palette

# normals
vn -1 0 0
vn 1 0 0
vn 0 0 1
vn 0 0 -1
vn 0 -1 0
vn 0 1 0

# texcoords
vt 0.232422 0.5
vt 0.501953 0.5
vt 0.876953 0.5
vt 0.994141 0.5

# verts
v 0 2 -0.1
v 0 2 -0.2
v 0 2 -2.6
v 0 2 -2.7
v 0 4.2 -0.2
v 0 4.2 -2.6
v 0 4.3 -0.1
v 0 4.3 -2.7
v 0.5 4.2 -0.6
v 0.5 4.2 -0.7
v 0.5 4.3 -0.6
v 0.5 4.3 -0.7
v 0.6 4.2 -0.7
v 0.6 4.2 -0.8
v 0.6 4.3 -0.7
v 0.6 4.3 -0.8
v 0.7 4.2 -0.8
v 0.7 4.2 -0.9
v 0.7 4.3 -0.8
v 0.7 4.3 -0.9
v 0.7 10 -0.7
v 0.7 10 -1.1
v 0.7 21.2 -0.7
v 0.7 21.2 -1.1
v 0.8 4.2 -0.9
v 0.8 4.2 -1
v 0.8 4.3 -0.9
v 0.8 4.3 -1
v 0.9 4.3 -1
v 0.9 4.3 -1.8
v 0.9 10 -1
v 0.9 10 -1.1
v 0.9 10.2 -1.1
v 0.9 10.2 -1.8
v 0.9 21 -1.1
v 0.9 21 -1.8
v 1.1 4.2 -1.2
v 1.1 4.2 -1.3
v 1.1 4.3 -1.2
v 1.1 4.3 -1.3
v 15.4 2 -0.1
v 15.4 2 -0.2
v 15.4 2 -2.6
v 15.4 2 -2.7
v 15.4 4.2 -0.2
v 15.4 4.2 -2.6
v 15.4 4.3 -0.1
v 15.4 4.3 -2.7
v 15.5 9.9 -1
v 15.5 9.9 -1.8
v 15.5 10 -1
v 15.5 10 -1.8
v 15.7 9.8 -1
v 15.7 9.8 -1.8
v 15.7 9.9 -1
v 15.7 9.9 -1.8
v 15.9 9.7 -1
v 15.9 9.7 -1.8
v 15.9 9.8 -1
v 15.9 9.8 -1.8
v 16 9.6 -1
v 16 9.6 -1.8
v 16 9.7 -1
v 16 9.7 -1.8
v 16.1 9.4 -1
v 16.1 9.4 -1.8
v 16.1 9.6 -1
v 16.1 9.6 -1.8
v 16.2 9.2 -1
v 16.2 9.2 -1.8
v 16.2 9.4 -1
v 16.2 9.4 -1.8
v 16.3 4.3 -1
v 16.3 4.3 -1.8
v 16.3 9.2 -1
v 16.3 9.2 -1.8
v 17 10.3 -0.7
v 17 10.3 -1
v 17 20.9 -0.7
v 17 20.9 -1
v 0.4 4.2 -0.6
v 0.4 4.2 -0.7
v 0.4 4.3 -0.6
v 0.4 4.3 -0.7
v 0.5 4.2 -0.7
v 0.5 4.2 -0.8
v 0.5 4.3 -0.7
v 0.5 4.3 -0.8
v 0.6 4.2 -0.8
v 0.6 4.2 -0.9
v 0.6 4.3 -0.8
v 0.6 4.3 -0.9
v 0.7 4.2 -0.9
v 0.7 4.2 -1
v 0.7 4.3 -0.9
v 0.7 4.3 -1
v 0.9 21 -1
v 0.9 21 -1.1
v 0.9 21.2 -1
v 0.9 21.2 -1.1
v 1 4.2 -1.2
v 1 4.2 -1.3
v 1 4.3 -1.2
v 1 4.3 -1.3
v 1 10.3 -0.7
v 1 10.3 -1
v 1 20.9 -0.7
v 1 20.9 -1
v 1.7 4.3 -1
v 1.7 4.3 -1.8
v 1.7 9.2 -1
v 1.7 9.2 -1.8
v 1.8 9.2 -1
v 1.8 9.2 -1.8
v 1.8 9.4 -1
v 1.8 9.4 -1.8
v 1.9 9.4 -1
v 1.9 9.4 -1.8
v 1.9 9.6 -1
v 1.9 9.6 -1.8
v 2 9.6 -1
v 2 9.6 -1.8
v 2 9.7 -1
v 2 9.7 -1.8
v 2.1 9.7 -1
v 2.1 9.7 -1.8
v 2.1 9.8 -1
v 2.1 9.8 -1.8
v 2.3 9.8 -1
v 2.3 9.8 -1.8
v 2.3 9.9 -1
v 2.3 9.9 -1.8
v 2.5 9.9 -1
v 2.5 9.9 -1.8
v 2.5 10 -1
v 2.5 10 -1.8
v 2.6 2 -0.1
v 2.6 2 -0.2
v 2.6 2 -2.6
v 2.6 2 -2.7
v 2.6 4.2 -0.2
v 2.6 4.2 -2.6
v 2.6 4.3 -0.1
v 2.6 4.3 -2.7
v 17.1 4.3 -1
v 17.1 4.3 -1.8
v 17.1 10 -1
v 17.1 10.2 -1
v 17.1 10.2 -1.8
v 17.1 21 -1
v 17.1 21 -1.8
v 17.3 10 -0.7
v 17.3 10 -1
v 17.3 21.2 -0.7
v 17.3 21.2 -1
v 18 2 -0.1
v 18 2 -0.2
v 18 2 -2.6
v 18 2 -2.7
v 18 4.2 -0.2
v 18 4.2 -2.6
v 18 4.3 -0.1
v 18 4.3 -2.7
v 0 2 -0.1
v 0 4.3 -0.1
v 0.1 2 -0.1
v 0.1 4.2 -0.1
v 2.5 2 -0.1
v 2.5 4.2 -0.1
v 2.6 2 -0.1
v 2.6 4.3 -0.1
v 15.4 2 -0.1
v 15.4 4.3 -0.1
v 15.5 2 -0.1
v 15.5 4.2 -0.1
v 17.9 2 -0.1
v 17.9 4.2 -0.1
v 18 2 -0.1
v 18 4.3 -0.1
v 0.4 4.2 -0.7
v 0.4 4.3 -0.7
v 0.5 4.2 -0.7
v 0.5 4.3 -0.7
v 0.7 10 -0.7
v 0.7 21.2 -0.7
v 1 10.3 -0.7
v 1 20.9 -0.7
v 17 10.3 -0.7
v 17 20.9 -0.7
v 17.3 10 -0.7
v 17.3 21.2 -0.7
v 0.5 4.2 -0.8
v 0.5 4.3 -0.8
v 0.6 4.2 -0.8
v 0.6 4.3 -0.8
v 0.6 4.2 -0.9
v 0.6 4.3 -0.9
v 0.7 4.2 -0.9
v 0.7 4.3 -0.9
v 0.7 4.2 -1
v 0.7 4.3 -1
v 0.8 4.2 -1
v 0.8 4.3 -1
v 0.9 4.3 -1
v 0.9 10 -1
v 1 10.3 -1
v 1 20.9 -1
v 1.7 4.3 -1
v 1.7 9.2 -1
v 1.8 9.2 -1
v 1.8 9.4 -1
v 1.9 9.4 -1
v 1.9 9.6 -1
v 2 9.6 -1
v 2 9.7 -1
v 2.1 9.7 -1
v 2.1 9.8 -1
v 2.3 9.8 -1
v 2.3 9.9 -1
v 2.5 9.9 -1
v 2.5 10 -1
v 15.5 9.9 -1
v 15.5 10 -1
v 15.7 9.8 -1
v 15.7 9.9 -1
v 15.9 9.7 -1
v 15.9 9.8 -1
v 16 9.6 -1
v 16 9.7 -1
v 16.1 9.4 -1
v 16.1 9.6 -1
v 16.2 9.2 -1
v 16.2 9.4 -1
v 16.3 4.3 -1
v 16.3 9.2 -1
v 17 10.3 -1
v 17 20.9 -1
v 17.1 4.3 -1
v 17.1 10 -1
v 1 4.2 -1.3
v 1 4.3 -1.3
v 1.1 4.2 -1.3
v 1.1 4.3 -1.3
v 0.4 4.2 -0.6
v 0.4 4.3 -0.6
v 0.5 4.2 -0.6
v 0.5 4.3 -0.6
v 0.5 4.2 -0.7
v 0.5 4.3 -0.7
v 0.6 4.2 -0.7
v 0.6 4.3 -0.7
v 0.6 4.2 -0.8
v 0.6 4.3 -0.8
v 0.7 4.2 -0.8
v 0.7 4.3 -0.8
v 0.7 4.2 -0.9
v 0.7 4.3 -0.9
v 0.8 4.2 -0.9
v 0.8 4.3 -0.9
v 0.9 21 -1
v 0.9 21.2 -1
v 17.1 10 -1
v 17.1 10.2 -1
v 17.1 21 -1
v 17.3 10 -1
v 17.3 21.2 -1
v 0.7 10 -1.1
v 0.7 21.2 -1.1
v 0.9 10 -1.1
v 0.9 10.2 -1.1
v 0.9 21 -1.1
v 0.9 21.2 -1.1
v 1 4.2 -1.2
v 1 4.3 -1.2
v 1.1 4.2 -1.2
v 1.1 4.3 -1.2
v 0.9 4.3 -1.8
v 0.9 10.2 -1.8
v 0.9 21 -1.8
v 1.7 4.3 -1.8
v 1.7 9.2 -1.8
v 1.8 9.2 -1.8
v 1.8 9.4 -1.8
v 1.9 9.4 -1.8
v 1.9 9.6 -1.8
v 2 9.6 -1.8
v 2 9.7 -1.8
v 2.1 9.7 -1.8
v 2.1 9.8 -1.8
v 2.3 9.8 -1.8
v 2.3 9.9 -1.8
v 2.5 9.9 -1.8
v 2.5 10 -1.8
v 15.5 9.9 -1.8
v 15.5 10 -1.8
v 15.7 9.8 -1.8
v 15.7 9.9 -1.8
v 15.9 9.7 -1.8
v 15.9 9.8 -1.8
v 16 9.6 -1.8
v 16 9.7 -1.8
v 16.1 9.4 -1.8
v 16.1 9.6 -1.8
v 16.2 9.2 -1.8
v 16.2 9.4 -1.8
v 16.3 4.3 -1.8
v 16.3 9.2 -1.8
v 17.1 4.3 -1.8
v 17.1 10.2 -1.8
v 17.1 21 -1.8
v 0 2 -2.7
v 0 4.3 -2.7
v 0.1 2 -2.7
v 0.1 4.2 -2.7
v 2.5 2 -2.7
v 2.5 4.2 -2.7
v 2.6 2 -2.7
v 2.6 4.3 -2.7
v 15.4 2 -2.7
v 15.4 4.3 -2.7
v 15.5 2 -2.7
v 15.5 4.2 -2.7
v 17.9 2 -2.7
v 17.9 4.2 -2.7
v 18 2 -2.7
v 18 4.3 -2.7
v 0 2 -0.1
v 0.1 2 -0.1
v 2.5 2 -0.1
v 2.6 2 -0.1
v 15.4 2 -0.1
v 15.5 2 -0.1
v 17.9 2 -0.1
v 18 2 -0.1
v 0 2 -0.2
v 0.1 2 -0.2
v 2.5 2 -0.2
v 2.6 2 -0.2
v 15.4 2 -0.2
v 15.5 2 -0.2
v 17.9 2 -0.2
v 18 2 -0.2
v 0 2 -2.6
v 0.1 2 -2.6
v 2.5 2 -2.6
v 2.6 2 -2.6
v 15.4 2 -2.6
v 15.5 2 -2.6
v 17.9 2 -2.6
v 18 2 -2.6
v 0 2 -2.7
v 0.1 2 -2.7
v 2.5 2 -2.7
v 2.6 2 -2.7
v 15.4 2 -2.7
v 15.5 2 -2.7
v 17.9 2 -2.7
v 18 2 -2.7
v 1 4.3 -1.2
v 1.1 4.3 -1.2
v 1 4.3 -1.3
v 1.1 4.3 -1.3
v 1.7 9.2 -1
v 1.8 9.2 -1
v 16.2 9.2 -1
v 16.3 9.2 -1
v 1.7 9.2 -1.8
v 1.8 9.2 -1.8
v 16.2 9.2 -1.8
v 16.3 9.2 -1.8
v 1.8 9.4 -1
v 1.9 9.4 -1
v 16.1 9.4 -1
v 16.2 9.4 -1
v 1.8 9.4 -1.8
v 1.9 9.4 -1.8
v 16.1 9.4 -1.8
v 16.2 9.4 -1.8
v 1.9 9.6 -1
v 2 9.6 -1
v 16 9.6 -1
v 16.1 9.6 -1
v 1.9 9.6 -1.8
v 2 9.6 -1.8
v 16 9.6 -1.8
v 16.1 9.6 -1.8
v 2 9.7 -1
v 2.1 9.7 -1
v 15.9 9.7 -1
v 16 9.7 -1
v 2 9.7 -1.8
v 2.1 9.7 -1.8
v 15.9 9.7 -1.8
v 16 9.7 -1.8
v 2.1 9.8 -1
v 2.3 9.8 -1
v 15.7 9.8 -1
v 15.9 9.8 -1
v 2.1 9.8 -1.8
v 2.3 9.8 -1.8
v 15.7 9.8 -1.8
v 15.9 9.8 -1.8
v 2.3 9.9 -1
v 2.5 9.9 -1
v 15.5 9.9 -1
v 15.7 9.9 -1
v 2.3 9.9 -1.8
v 2.5 9.9 -1.8
v 15.5 9.9 -1.8
v 15.7 9.9 -1.8
v 0.7 10 -0.7
v 17.3 10 -0.7
v 0.9 10 -1
v 2.5 10 -1
v 15.5 10 -1
v 17.1 10 -1
v 17.3 10 -1
v 0.7 10 -1.1
v 0.9 10 -1.1
v 2.5 10 -1.8
v 15.5 10 -1.8
v 1 20.9 -0.7
v 17 20.9 -0.7
v 1 20.9 -1
v 17 20.9 -1
v 0.4 4.2 -0.6
v 0.5 4.2 -0.6
v 0.4 4.2 -0.7
v 0.5 4.2 -0.7
v 0.6 4.2 -0.7
v 0.5 4.2 -0.8
v 0.6 4.2 -0.8
v 0.7 4.2 -0.8
v 0.6 4.2 -0.9
v 0.7 4.2 -0.9
v 0.8 4.2 -0.9
v 0.7 4.2 -1
v 0.8 4.2 -1
v 1 4.2 -1.2
v 1.1 4.2 -1.2
v 1 4.2 -1.3
v 1.1 4.2 -1.3
v 0 4.3 -0.1
v 2.6 4.3 -0.1
v 15.4 4.3 -0.1
v 18 4.3 -0.1
v 0.1 4.3 -0.2
v 2.5 4.3 -0.2
v 15.5 4.3 -0.2
v 17.9 4.3 -0.2
v 0.4 4.3 -0.6
v 0.5 4.3 -0.6
v 0.4 4.3 -0.7
v 0.5 4.3 -0.7
v 0.6 4.3 -0.7
v 0.5 4.3 -0.8
v 0.6 4.3 -0.8
v 0.7 4.3 -0.8
v 0.6 4.3 -0.9
v 0.7 4.3 -0.9
v 0.8 4.3 -0.9
v 0.9 4.3 -0.9
v 1.7 4.3 -0.9
v 16.3 4.3 -0.9
v 17.1 4.3 -0.9
v 0.7 4.3 -1
v 0.8 4.3 -1
v 0.9 4.3 -1
v 1.7 4.3 -1
v 1.8 4.3 -1
v 16.2 4.3 -1
v 16.3 4.3 -1
v 17.1 4.3 -1
v 17.2 4.3 -1
v 0.8 4.3 -1.8
v 0.9 4.3 -1.8
v 1.7 4.3 -1.8
v 1.8 4.3 -1.8
v 16.2 4.3 -1.8
v 16.3 4.3 -1.8
v 17.1 4.3 -1.8
v 17.2 4.3 -1.8
v 0.9 4.3 -1.9
v 1.7 4.3 -1.9
v 16.3 4.3 -1.9
v 17.1 4.3 -1.9
v 0.1 4.3 -2.6
v 2.5 4.3 -2.6
v 15.5 4.3 -2.6
v 17.9 4.3 -2.6
v 0 4.3 -2.7
v 2.6 4.3 -2.7
v 15.4 4.3 -2.7
v 18 4.3 -2.7
v 1 10.3 -0.7
v 17 10.3 -0.7
v 1 10.3 -1
v 17 10.3 -1
v 0.9 21 -1
v 17.1 21 -1
v 0.9 21 -1.1
v 0.9 21 -1.8
v 17.1 21 -1.8
v 0.7 21.2 -0.7
v 17.3 21.2 -0.7
v 0.9 21.2 -1
v 17.3 21.2 -1
v 0.7 21.2 -1.1
v 0.9 21.2 -1.1

# faces
f 5/4/1 2/4/1 1/4/1
f 5/2/1 3/2/1 2/2/1
f 6/4/1 4/4/1 3/4/1
f 6/2/1 3/2/1 5/2/1
f 7/4/1 5/4/1 1/4/1
f 7/4/1 6/4/1 5/4/1
f 8/4/1 4/4/1 6/4/1
f 8/4/1 6/4/1 7/4/1
f 11/2/1 10/2/1 9/2/1
f 12/2/1 10/2/1 11/2/1
f 15/2/1 14/2/1 13/2/1
f 16/2/1 14/2/1 15/2/1
f 19/2/1 18/2/1 17/2/1
f 20/2/1 18/2/1 19/2/1
f 23/2/1 22/2/1 21/2/1
f 24/2/1 22/2/1 23/2/1
f 27/2/1 26/2/1 25/2/1
f 28/2/1 26/2/1 27/2/1
f 31/1/1 30/1/1 29/1/1
f 32/1/1 30/1/1 31/1/1
f 33/1/1 30/1/1 32/1/1
f 34/1/1 30/1/1 33/1/1
f 35/3/1 34/3/1 33/3/1
f 36/3/1 34/3/1 35/3/1
f 39/2/1 38/2/1 37/2/1
f 40/2/1 38/2/1 39/2/1
f 45/4/1 42/4/1 41/4/1
f 45/2/1 43/2/1 42/2/1
f 46/4/1 44/4/1 43/4/1
f 46/2/1 43/2/1 45/2/1
f 47/4/1 45/4/1 41/4/1
f 47/4/1 46/4/1 45/4/1
f 48/4/1 44/4/1 46/4/1
f 48/4/1 46/4/1 47/4/1
f 51/1/1 50/1/1 49/1/1
f 52/1/1 50/1/1 51/1/1
f 55/1/1 54/1/1 53/1/1
f 56/1/1 54/1/1 55/1/1
f 59/1/1 58/1/1 57/1/1
f 60/1/1 58/1/1 59/1/1
f 63/1/1 62/1/1 61/1/1
f 64/1/1 62/1/1 63/1/1
f 67/1/1 66/1/1 65/1/1
f 68/1/1 66/1/1 67/1/1
f 71/1/1 70/1/1 69/1/1
f 72/1/1 70/1/1 71/1/1
f 75/1/1 74/1/1 73/1/1
f 76/1/1 74/1/1 75/1/1
f 79/2/1 78/2/1 77/2/1
f 80/2/1 78/2/1 79/2/1
f 81/2/2 82/2/2 83/2/2
f 83/2/2 82/2/2 84/2/2
f 85/2/2 86/2/2 87/2/2
f 87/2/2 86/2/2 88/2/2
f 89/2/2 90/2/2 91/2/2
f 91/2/2 90/2/2 92/2/2
f 93/2/2 94/2/2 95/2/2
f 95/2/2 94/2/2 96/2/2
f 97/2/2 98/2/2 99/2/2
f 99/2/2 98/2/2 100/2/2
f 101/2/2 102/2/2 103/2/2
f 103/2/2 102/2/2 104/2/2
f 105/2/2 106/2/2 107/2/2
f 107/2/2 106/2/2 108/2/2
f 109/1/2 110/1/2 111/1/2
f 111/1/2 110/1/2 112/1/2
f 113/1/2 114/1/2 115/1/2
f 115/1/2 114/1/2 116/1/2
f 117/1/2 118/1/2 119/1/2
f 119/1/2 118/1/2 120/1/2
f 121/1/2 122/1/2 123/1/2
f 123/1/2 122/1/2 124/1/2
f 125/1/2 126/1/2 127/1/2
f 127/1/2 126/1/2 128/1/2
f 129/1/2 130/1/2 131/1/2
f 131/1/2 130/1/2 132/1/2
f 133/1/2 134/1/2 135/1/2
f 135/1/2 134/1/2 136/1/2
f 137/4/2 138/4/2 141/4/2
f 138/2/2 139/2/2 141/2/2
f 139/4/2 140/4/2 142/4/2
f 141/2/2 139/2/2 142/2/2
f 137/4/2 141/4/2 143/4/2
f 141/4/2 142/4/2 143/4/2
f 142/4/2 140/4/2 144/4/2
f 143/4/2 142/4/2 144/4/2
f 145/1/2 146/1/2 147/1/2
f 147/1/2 146/1/2 148/1/2
f 148/1/2 146/1/2 149/1/2
f 148/3/2 149/3/2 150/3/2
f 150/3/2 149/3/2 151/3/2
f 152/2/2 153/2/2 154/2/2
f 154/2/2 153/2/2 155/2/2
f 156/4/2 157/4/2 160/4/2
f 157/2/2 158/2/2 160/2/2
f 158/4/2 159/4/2 161/4/2
f 160/2/2 158/2/2 161/2/2
f 156/4/2 160/4/2 162/4/2
f 160/4/2 161/4/2 162/4/2
f 161/4/2 159/4/2 163/4/2
f 162/4/2 161/4/2 163/4/2
f 166/4/3 165/4/3 164/4/3
f 167/4/3 165/4/3 166/4/3
f 168/2/3 167/2/3 166/2/3
f 169/4/3 165/4/3 167/4/3
f 169/2/3 167/2/3 168/2/3
f 170/4/3 169/4/3 168/4/3
f 171/4/3 165/4/3 169/4/3
f 171/4/3 169/4/3 170/4/3
f 174/4/3 173/4/3 172/4/3
f 175/4/3 173/4/3 174/4/3
f 176/2/3 175/2/3 174/2/3
f 177/4/3 173/4/3 175/4/3
f 177/2/3 175/2/3 176/2/3
f 178/4/3 177/4/3 176/4/3
f 179/4/3 173/4/3 177/4/3
f 179/4/3 177/4/3 178/4/3
f 182/2/3 181/2/3 180/2/3
f 183/2/3 181/2/3 182/2/3
f 186/2/3 185/2/3 184/2/3
f 187/2/3 185/2/3 186/2/3
f 188/2/3 186/2/3 184/2/3
f 189/2/3 185/2/3 187/2/3
f 190/2/3 188/2/3 184/2/3
f 190/2/3 189/2/3 188/2/3
f 191/2/3 185/2/3 189/2/3
f 191/2/3 189/2/3 190/2/3
f 194/2/3 193/2/3 192/2/3
f 195/2/3 193/2/3 194/2/3
f 198/2/3 197/2/3 196/2/3
f 199/2/3 197/2/3 198/2/3
f 202/2/3 201/2/3 200/2/3
f 203/2/3 201/2/3 202/2/3
f 208/1/3 205/1/3 204/1/3
f 209/1/3 205/1/3 208/1/3
f 210/1/3 205/1/3 209/1/3
f 211/1/3 205/1/3 210/1/3
f 212/1/3 205/1/3 211/1/3
f 213/1/3 205/1/3 212/1/3
f 214/1/3 205/1/3 213/1/3
f 215/1/3 205/1/3 214/1/3
f 216/1/3 205/1/3 215/1/3
f 217/1/3 205/1/3 216/1/3
f 218/1/3 205/1/3 217/1/3
f 219/1/3 205/1/3 218/1/3
f 220/1/3 205/1/3 219/1/3
f 221/1/3 205/1/3 220/1/3
f 225/1/3 223/1/3 222/1/3
f 227/1/3 225/1/3 224/1/3
f 229/1/3 227/1/3 226/1/3
f 231/1/3 229/1/3 228/1/3
f 233/1/3 231/1/3 230/1/3
f 235/1/3 233/1/3 232/1/3
f 236/3/3 207/3/3 206/3/3
f 237/3/3 207/3/3 236/3/3
f 238/1/3 235/1/3 234/1/3
f 239/1/3 233/1/3 235/1/3
f 239/1/3 235/1/3 238/1/3
f 239/1/3 223/1/3 225/1/3
f 239/1/3 225/1/3 227/1/3
f 239/1/3 227/1/3 229/1/3
f 239/1/3 231/1/3 233/1/3
f 239/1/3 229/1/3 231/1/3
f 242/2/3 241/2/3 240/2/3
f 243/2/3 241/2/3 242/2/3
f 244/2/4 245/2/4 246/2/4
f 246/2/4 245/2/4 247/2/4
f 248/2/4 249/2/4 250/2/4
f 250/2/4 249/2/4 251/2/4
f 252/2/4 253/2/4 254/2/4
f 254/2/4 253/2/4 255/2/4
f 256/2/4 257/2/4 258/2/4
f 258/2/4 257/2/4 259/2/4
f 260/2/4 261/2/4 264/2/4
f 262/2/4 263/2/4 265/2/4
f 263/2/4 264/2/4 265/2/4
f 264/2/4 261/2/4 266/2/4
f 265/2/4 264/2/4 266/2/4
f 267/2/4 268/2/4 269/2/4
f 269/2/4 268/2/4 270/2/4
f 270/2/4 268/2/4 271/2/4
f 271/2/4 268/2/4 272/2/4
f 273/2/4 274/2/4 275/2/4
f 275/2/4 274/2/4 276/2/4
f 277/1/4 278/1/4 280/1/4
f 280/1/4 278/1/4 281/1/4
f 281/1/4 278/1/4 282/1/4
f 282/1/4 278/1/4 283/1/4
f 283/1/4 278/1/4 284/1/4
f 284/1/4 278/1/4 285/1/4
f 285/1/4 278/1/4 286/1/4
f 286/1/4 278/1/4 287/1/4
f 287/1/4 278/1/4 288/1/4
f 288/1/4 278/1/4 289/1/4
f 289/1/4 278/1/4 290/1/4
f 290/1/4 278/1/4 291/1/4
f 291/1/4 278/1/4 292/1/4
f 292/1/4 278/1/4 293/1/4
f 293/1/4 278/1/4 295/1/4
f 294/1/4 295/1/4 297/1/4
f 296/1/4 297/1/4 299/1/4
f 298/1/4 299/1/4 301/1/4
f 300/1/4 301/1/4 303/1/4
f 302/1/4 303/1/4 305/1/4
f 304/1/4 305/1/4 307/1/4
f 306/1/4 307/1/4 308/1/4
f 278/3/4 279/3/4 309/3/4
f 308/1/4 307/1/4 309/1/4
f 295/1/4 278/1/4 309/1/4
f 307/1/4 305/1/4 309/1/4
f 297/1/4 295/1/4 309/1/4
f 305/1/4 303/1/4 309/1/4
f 299/1/4 297/1/4 309/1/4
f 303/1/4 301/1/4 309/1/4
f 301/1/4 299/1/4 309/1/4
f 309/3/4 279/3/4 310/3/4
f 311/4/4 312/4/4 313/4/4
f 313/4/4 312/4/4 314/4/4
f 313/2/4 314/2/4 315/2/4
f 314/4/4 312/4/4 316/4/4
f 315/2/4 314/2/4 316/2/4
f 315/4/4 316/4/4 317/4/4
f 316/4/4 312/4/4 318/4/4
f 317/4/4 316/4/4 318/4/4
f 319/4/4 320/4/4 321/4/4
f 321/4/4 320/4/4 322/4/4
f 321/2/4 322/2/4 323/2/4
f 322/4/4 320/4/4 324/4/4
f 323/2/4 322/2/4 324/2/4
f 323/4/4 324/4/4 325/4/4
f 324/4/4 320/4/4 326/4/4
f 325/4/4 324/4/4 326/4/4
f 335/4/5 328/4/5 327/4/5
f 336/2/5 329/2/5 328/2/5
f 336/4/5 328/4/5 335/4/5
f 337/4/5 330/4/5 329/4/5
f 337/2/5 329/2/5 336/2/5
f 338/4/5 330/4/5 337/4/5
f 339/4/5 332/4/5 331/4/5
f 340/2/5 333/2/5 332/2/5
f 340/4/5 332/4/5 339/4/5
f 341/4/5 334/4/5 333/4/5
f 341/2/5 333/2/5 340/2/5
f 342/4/5 334/4/5 341/4/5
f 343/2/5 336/2/5 335/2/5
f 343/2/5 338/2/5 337/2/5
f 343/2/5 337/2/5 336/2/5
f 344/2/5 338/2/5 343/2/5
f 345/2/5 338/2/5 344/2/5
f 346/2/5 338/2/5 345/2/5
f 347/2/5 340/2/5 339/2/5
f 347/2/5 342/2/5 341/2/5
f 347/2/5 341/2/5 340/2/5
f 348/2/5 342/2/5 347/2/5
f 349/2/5 342/2/5 348/2/5
f 350/2/5 342/2/5 349/2/5
f 351/4/5 344/4/5 343/4/5
f 352/2/5 345/2/5 344/2/5
f 352/4/5 344/4/5 351/4/5
f 353/4/5 346/4/5 345/4/5
f 353/2/5 345/2/5 352/2/5
f 354/4/5 346/4/5 353/4/5
f 355/4/5 348/4/5 347/4/5
f 356/2/5 349/2/5 348/2/5
f 356/4/5 348/4/5 355/4/5
f 357/4/5 350/4/5 349/4/5
f 357/2/5 349/2/5 356/2/5
f 358/4/5 350/4/5 357/4/5
f 361/1/5 360/1/5 359/1/5
f 362/1/5 360/1/5 361/1/5
f 367/1/5 364/1/5 363/1/5
f 368/1/5 364/1/5 367/1/5
f 369/1/5 366/1/5 365/1/5
f 370/1/5 366/1/5 369/1/5
f 375/1/5 372/1/5 371/1/5
f 376/1/5 372/1/5 375/1/5
f 377/1/5 374/1/5 373/1/5
f 378/1/5 374/1/5 377/1/5
f 383/1/5 380/1/5 379/1/5
f 384/1/5 380/1/5 383/1/5
f 385/1/5 382/1/5 381/1/5
f 386/1/5 382/1/5 385/1/5
f 391/1/5 388/1/5 387/1/5
f 392/1/5 388/1/5 391/1/5
f 393/1/5 390/1/5 389/1/5
f 394/1/5 390/1/5 393/1/5
f 399/1/5 396/1/5 395/1/5
f 400/1/5 396/1/5 399/1/5
f 401/1/5 398/1/5 397/1/5
f 402/1/5 398/1/5 401/1/5
f 407/1/5 404/1/5 403/1/5
f 408/1/5 404/1/5 407/1/5
f 409/1/5 406/1/5 405/1/5
f 410/1/5 406/1/5 409/1/5
f 413/2/5 412/2/5 411/2/5
f 414/2/5 412/2/5 413/2/5
f 415/2/5 412/2/5 414/2/5
f 416/2/5 412/2/5 415/2/5
f 417/2/5 412/2/5 416/2/5
f 418/2/5 413/2/5 411/2/5
f 419/2/5 413/2/5 418/2/5
f 420/1/5 415/1/5 414/1/5
f 421/1/5 415/1/5 420/1/5
f 424/2/5 423/2/5 422/2/5
f 425/2/5 423/2/5 424/2/5
f 426/2/6 427/2/6 428/2/6
f 428/2/6 427/2/6 429/2/6
f 429/2/6 430/2/6 431/2/6
f 431/2/6 430/2/6 432/2/6
f 432/2/6 433/2/6 434/2/6
f 434/2/6 433/2/6 435/2/6
f 435/2/6 436/2/6 437/2/6
f 437/2/6 436/2/6 438/2/6
f 439/2/6 440/2/6 441/2/6
f 441/2/6 440/2/6 442/2/6
f 443/4/6 444/4/6 447/4/6
f 447/4/6 444/4/6 448/4/6
f 445/4/6 446/4/6 449/4/6
f 449/4/6 446/4/6 450/4/6
f 447/2/6 448/2/6 451/2/6
f 451/2/6 448/2/6 452/2/6
f 447/2/6 451/2/6 453/2/6
f 452/2/6 448/2/6 454/2/6
f 454/2/6 448/2/6 455/2/6
f 453/2/6 454/2/6 456/2/6
f 455/2/6 448/2/6 457/2/6
f 457/2/6 448/2/6 458/2/6
f 456/2/6 457/2/6 459/2/6
f 458/2/6 448/2/6 460/2/6
f 460/2/6 448/2/6 461/2/6
f 461/2/6 448/2/6 462/2/6
f 462/2/6 448/2/6 463/2/6
f 449/2/6 450/2/6 464/2/6
f 464/2/6 450/2/6 465/2/6
f 459/2/6 460/2/6 466/2/6
f 461/2/6 462/2/6 467/2/6
f 462/4/6 463/4/6 468/4/6
f 467/2/6 462/2/6 468/2/6
f 463/2/6 448/2/6 469/2/6
f 468/4/6 463/4/6 469/4/6
f 469/2/6 448/2/6 470/2/6
f 449/2/6 464/2/6 471/2/6
f 464/4/6 465/4/6 472/4/6
f 471/2/6 464/2/6 472/2/6
f 465/2/6 450/2/6 473/2/6
f 472/4/6 465/4/6 473/4/6
f 473/2/6 450/2/6 474/2/6
f 467/4/6 468/4/6 475/4/6
f 466/2/6 467/2/6 475/2/6
f 475/4/6 468/4/6 476/4/6
f 469/4/6 470/4/6 477/4/6
f 470/2/6 448/2/6 478/2/6
f 477/4/6 470/4/6 478/4/6
f 471/4/6 472/4/6 479/4/6
f 449/2/6 471/2/6 479/2/6
f 479/4/6 472/4/6 480/4/6
f 473/4/6 474/4/6 481/4/6
f 474/2/6 450/2/6 482/2/6
f 481/4/6 474/4/6 482/4/6
f 476/4/6 477/4/6 483/4/6
f 475/2/6 476/2/6 483/2/6
f 477/2/6 478/2/6 484/2/6
f 483/4/6 477/4/6 484/4/6
f 480/4/6 481/4/6 485/4/6
f 479/2/6 480/2/6 485/2/6
f 481/2/6 482/2/6 486/2/6
f 485/4/6 481/4/6 486/4/6
f 443/4/6 447/4/6 487/4/6
f 447/2/6 453/2/6 487/2/6
f 453/2/6 456/2/6 487/2/6
f 456/2/6 459/2/6 487/2/6
f 475/2/6 483/2/6 487/2/6
f 459/2/6 466/2/6 487/2/6
f 466/2/6 475/2/6 487/2/6
f 483/2/6 484/2/6 487/2/6
f 448/4/6 444/4/6 488/4/6
f 487/2/6 484/2/6 488/2/6
f 484/2/6 478/2/6 488/2/6
f 478/2/6 448/2/6 488/2/6
f 445/4/6 449/4/6 489/4/6
f 485/2/6 486/2/6 489/2/6
f 449/2/6 479/2/6 489/2/6
f 479/2/6 485/2/6 489/2/6
f 486/2/6 482/2/6 490/2/6
f 489/2/6 486/2/6 490/2/6
f 450/4/6 446/4/6 490/4/6
f 482/2/6 450/2/6 490/2/6
f 443/4/6 487/4/6 491/4/6
f 487/4/6 488/4/6 491/4/6
f 488/4/6 444/4/6 492/4/6
f 491/4/6 488/4/6 492/4/6
f 445/4/6 489/4/6 493/4/6
f 489/4/6 490/4/6 493/4/6
f 490/4/6 446/4/6 494/4/6
f 493/4/6 490/4/6 494/4/6
f 495/2/6 496/2/6 497/2/6
f 497/2/6 496/2/6 498/2/6
f 499/3/6 500/3/6 501/3/6
f 501/3/6 500/3/6 502/3/6
f 502/3/6 500/3/6 503/3/6
f 504/2/6 505/2/6 506/2/6
f 506/2/6 505/2/6 507/2/6
f 504/2/6 506/2/6 508/2/6
f 508/2/6 506/2/6 509/2/6
